<svg xmlns="http://www.w3.org/2000/svg" viewBox="0 0 24 24" fill="none" stroke="currentColor" stroke-width="1.7" stroke-linecap="round" stroke-linejoin="round">
  <path d="M8.5 16.5s-1.5 1 1 1.5c2.917.583 4.417.5 7.5-.5 0 0 .833.5 2 1-7.333 3.167-16.583-.167-10.5-2Z"/>
  <path d="M7.5 13.5s-1.667 1.25 1 1.667c2.5.333 6.667.5 6.667.5l-6.167 1.333"/>
  <path d="M12.5 3c-1 1.5-4.5 3-3.5 5.5C10 11 14 11.5 12.5 13c3-3 -1-5.5 .5-9Z"/>
  <path d="M10 1c0 3-4 3.5-4 6.5 0 2 2 3 2 3s-3.5-1-3.5-4c0-3.5 5.5-5.5 5.5-5.5Z"/>
  <path d="M6.5 19.5s-1 .583 1.5 1c3.5.5 8.5.5 10-.5 0 0 .583.417 1.5.833C12 23.667 2 20.833 6.5 19.5Z"/>
</svg>
