<svg xmlns="http://www.w3.org/2000/svg" viewBox="0 0 24 24" fill="none" stroke="currentColor" stroke-width="1.7" stroke-linecap="round" stroke-linejoin="round">
  <path d="M12 2C8 2 7 4 7 6v2h5v1H5.5C3.5 9 2 10.5 2 13s1.5 4 3.5 4H7v-2.5c0-2 1-3 3-3h4c2 0 3-1 3-3V6c0-2-1-4-5-4z"/>
  <path d="M12 22c4 0 5-2 5-4v-2h-5v-1h6.5c2 0 3.5-1.5 3.5-4s-1.5-4-3.5-4H17v2.5c0 2-1 3-3 3H10c-2 0-3 1-3 3v3c0 2 1 4 5 4z"/>
  <circle cx="9.5" cy="5.5" r="0.75" fill="currentColor"/>
  <circle cx="14.5" cy="18.5" r="0.75" fill="currentColor"/>
</svg>
